<svg width="70" height="70" viewBox="0 0 70 70" fill="none" xmlns="http://www.w3.org/2000/svg">
<g id="facebook">
<g id="bg" filter="url(#filter0_d_2_540)">
<path d="M4 31C4 48.1208 17.8792 62 35 62C52.1208 62 66 48.1208 66 31C66 13.8792 52.1208 0 35 0C17.8792 0 4 13.8792 4 31Z" fill="#414448"/>
</g>
<path id="facebook_2" d="M50.5 31C50.5 22.475 43.525 15.5 35 15.5C26.475 15.5 19.5 22.475 19.5 31C19.5 38.75 25.1187 45.1437 32.4812 46.3062V35.4562H28.6062V31H32.4812V27.5125C32.4812 23.6375 34.8063 21.5063 38.2938 21.5063C40.0375 21.5063 41.7812 21.8938 41.7812 21.8938V25.7688H39.8438C37.9062 25.7688 37.325 26.9312 37.325 28.0938V31H41.5875L40.8125 35.4562H37.1313V46.5C44.8813 45.3375 50.5 38.75 50.5 31Z" fill="white"/>
</g>
<defs>
<filter id="filter0_d_2_540" x="0" y="0" width="70" height="70" filterUnits="userSpaceOnUse" color-interpolation-filters="sRGB">
<feFlood flood-opacity="0" result="BackgroundImageFix"/>
<feColorMatrix in="SourceAlpha" type="matrix" values="0 0 0 0 0 0 0 0 0 0 0 0 0 0 0 0 0 0 127 0" result="hardAlpha"/>
<feOffset dy="4"/>
<feGaussianBlur stdDeviation="2"/>
<feComposite in2="hardAlpha" operator="out"/>
<feColorMatrix type="matrix" values="0 0 0 0 0 0 0 0 0 0 0 0 0 0 0 0 0 0 0.25 0"/>
<feBlend mode="normal" in2="BackgroundImageFix" result="effect1_dropShadow_2_540"/>
<feBlend mode="normal" in="SourceGraphic" in2="effect1_dropShadow_2_540" result="shape"/>
</filter>
</defs>
</svg>
