<svg width="70" height="70" viewBox="0 0 70 70" fill="none" xmlns="http://www.w3.org/2000/svg">
<g id="instagram">
<g id="bg" filter="url(#filter0_d_2_537)">
<path d="M4 31C4 48.1208 17.8792 62 35 62C52.1208 62 66 48.1208 66 31C66 13.8792 52.1208 0 35 0C17.8792 0 4 13.8792 4 31Z" fill="#414448"/>
</g>
<g id="instagram_2">
<path d="M35 17.825C39.2625 17.825 39.8437 17.825 41.5875 17.825C43.1375 17.825 43.9125 18.2125 44.4937 18.4063C45.2687 18.7938 45.85 18.9875 46.4312 19.5688C47.0125 20.15 47.4 20.7313 47.5937 21.5063C47.7875 22.0875 47.9812 22.8625 48.175 24.4125C48.175 26.1563 48.175 26.5438 48.175 31C48.175 35.4563 48.175 35.8438 48.175 37.5875C48.175 39.1375 47.7875 39.9125 47.5937 40.4938C47.2062 41.2688 47.0125 41.85 46.4312 42.4313C45.85 43.0125 45.2687 43.4 44.4937 43.5938C43.9125 43.7875 43.1375 43.9813 41.5875 44.175C39.8437 44.175 39.4562 44.175 35 44.175C30.5437 44.175 30.1562 44.175 28.4125 44.175C26.8625 44.175 26.0875 43.7875 25.5062 43.5938C24.7312 43.2063 24.15 43.0125 23.5687 42.4313C22.9875 41.85 22.6 41.2688 22.4062 40.4938C22.2125 39.9125 22.0187 39.1375 21.825 37.5875C21.825 35.8438 21.825 35.4563 21.825 31C21.825 26.5438 21.825 26.1563 21.825 24.4125C21.825 22.8625 22.2125 22.0875 22.4062 21.5063C22.7937 20.7313 22.9875 20.15 23.5687 19.5688C24.15 18.9875 24.7312 18.6 25.5062 18.4063C26.0875 18.2125 26.8625 18.0188 28.4125 17.825C30.1562 17.825 30.7375 17.825 35 17.825ZM35 14.9188C30.5437 14.9188 30.1562 14.9188 28.4125 14.9188C26.6687 14.9188 25.5062 15.3063 24.5375 15.6938C23.5687 16.0813 22.6 16.6625 21.6312 17.6313C20.6625 18.6 20.275 19.375 19.6937 20.5375C19.3062 21.5063 19.1125 22.6688 18.9187 24.4125C18.9187 26.1563 18.9187 26.7375 18.9187 31C18.9187 35.4563 18.9187 35.8438 18.9187 37.5875C18.9187 39.3313 19.3062 40.4938 19.6937 41.4625C20.0812 42.4313 20.6625 43.4 21.6312 44.3688C22.6 45.3375 23.375 45.725 24.5375 46.3063C25.5062 46.6938 26.6687 46.8875 28.4125 47.0813C30.1562 47.0813 30.7375 47.0813 35 47.0813C39.2625 47.0813 39.8437 47.0813 41.5875 47.0813C43.3312 47.0813 44.4937 46.6938 45.4625 46.3063C46.4312 45.9188 47.4 45.3375 48.3687 44.3688C49.3375 43.4 49.725 42.625 50.3062 41.4625C50.6937 40.4938 50.8874 39.3313 51.0812 37.5875C51.0812 35.8438 51.0812 35.2625 51.0812 31C51.0812 26.7375 51.0812 26.1563 51.0812 24.4125C51.0812 22.6688 50.6937 21.5063 50.3062 20.5375C49.9187 19.5688 49.3375 18.6 48.3687 17.6313C47.4 16.6625 46.625 16.275 45.4625 15.6938C44.4937 15.3063 43.3312 15.1125 41.5875 14.9188C39.8437 14.9188 39.4562 14.9188 35 14.9188Z" fill="white"/>
<path d="M35 22.6688C30.35 22.6688 26.6687 26.35 26.6687 31C26.6687 35.65 30.35 39.3313 35 39.3313C39.65 39.3313 43.3312 35.65 43.3312 31C43.3312 26.35 39.65 22.6688 35 22.6688ZM35 36.425C32.0937 36.425 29.575 34.1 29.575 31C29.575 28.0938 31.9 25.575 35 25.575C37.9062 25.575 40.425 27.9 40.425 31C40.425 33.9063 37.9062 36.425 35 36.425Z" fill="white"/>
<path d="M43.525 24.4125C44.595 24.4125 45.4625 23.5451 45.4625 22.475C45.4625 21.405 44.595 20.5375 43.525 20.5375C42.4549 20.5375 41.5875 21.405 41.5875 22.475C41.5875 23.5451 42.4549 24.4125 43.525 24.4125Z" fill="white"/>
</g>
</g>
<defs>
<filter id="filter0_d_2_537" x="0" y="0" width="70" height="70" filterUnits="userSpaceOnUse" color-interpolation-filters="sRGB">
<feFlood flood-opacity="0" result="BackgroundImageFix"/>
<feColorMatrix in="SourceAlpha" type="matrix" values="0 0 0 0 0 0 0 0 0 0 0 0 0 0 0 0 0 0 127 0" result="hardAlpha"/>
<feOffset dy="4"/>
<feGaussianBlur stdDeviation="2"/>
<feComposite in2="hardAlpha" operator="out"/>
<feColorMatrix type="matrix" values="0 0 0 0 0 0 0 0 0 0 0 0 0 0 0 0 0 0 0.25 0"/>
<feBlend mode="normal" in2="BackgroundImageFix" result="effect1_dropShadow_2_537"/>
<feBlend mode="normal" in="SourceGraphic" in2="effect1_dropShadow_2_537" result="shape"/>
</filter>
</defs>
</svg>
