<svg width="70" height="70" viewBox="0 0 70 70" fill="none" xmlns="http://www.w3.org/2000/svg">
<g id="twitter">
<g id="bg" filter="url(#filter0_d_2_543)">
<path d="M4 31C4 48.1208 17.8792 62 35 62C52.1208 62 66 48.1208 66 31C66 13.8792 52.1208 0 35 0C17.8792 0 4 13.8792 4 31Z" fill="#414448"/>
</g>
<path id="twitter_2" d="M50.5 21.3125C49.3375 21.8937 48.175 22.0875 46.8188 22.2812C48.175 21.5062 49.1437 20.3437 49.5312 18.7937C48.3687 19.5687 47.0125 19.9562 45.4625 20.3438C44.3 19.1812 42.5562 18.4062 40.8125 18.4062C36.7437 18.4062 33.6438 22.2812 34.6125 26.1562C29.3813 25.9625 24.7313 23.4438 21.4375 19.5688C19.6938 22.475 20.6625 26.1562 23.375 28.0938C22.4062 28.0938 21.4375 27.7063 20.4688 27.3188C20.4688 30.225 22.6 32.9375 25.5063 33.7125C24.5375 33.9062 23.5688 34.1 22.6 33.9062C23.375 36.425 25.7 38.3625 28.6062 38.3625C26.2812 40.1062 22.7938 41.075 19.5 40.6875C22.4062 42.4312 25.7 43.5938 29.1875 43.5938C41.0063 43.5938 47.5937 33.7125 47.2062 24.6062C48.5625 23.8312 49.725 22.6687 50.5 21.3125Z" fill="white"/>
</g>
<defs>
<filter id="filter0_d_2_543" x="0" y="0" width="70" height="70" filterUnits="userSpaceOnUse" color-interpolation-filters="sRGB">
<feFlood flood-opacity="0" result="BackgroundImageFix"/>
<feColorMatrix in="SourceAlpha" type="matrix" values="0 0 0 0 0 0 0 0 0 0 0 0 0 0 0 0 0 0 127 0" result="hardAlpha"/>
<feOffset dy="4"/>
<feGaussianBlur stdDeviation="2"/>
<feComposite in2="hardAlpha" operator="out"/>
<feColorMatrix type="matrix" values="0 0 0 0 0 0 0 0 0 0 0 0 0 0 0 0 0 0 0.25 0"/>
<feBlend mode="normal" in2="BackgroundImageFix" result="effect1_dropShadow_2_543"/>
<feBlend mode="normal" in="SourceGraphic" in2="effect1_dropShadow_2_543" result="shape"/>
</filter>
</defs>
</svg>
